<?xml version="1.0" encoding="UTF-8"?>
<svg version="1.1" xmlns="http://www.w3.org/2000/svg" width="32" height="32">
<path d="M0 0 C6.47083073 0.48819711 11.60586984 2.82092009 17.4375 5.5625 C18.82098633 6.19961914 18.82098633 6.19961914 20.23242188 6.84960938 C22.49217401 7.89167124 24.74771507 8.94192021 27 10 C27 11.32 27 12.64 27 14 C23.4446213 15.68217238 19.87964606 17.34294533 16.3125 19 C15.30509766 19.47695313 14.29769531 19.95390625 13.25976562 20.4453125 C12.28330078 20.89648438 11.30683594 21.34765625 10.30078125 21.8125 C9.40528564 22.23144531 8.50979004 22.65039062 7.5871582 23.08203125 C4.87849395 24.04311246 2.85022182 24.17968301 0 24 C-0.02688151 22.35425434 -0.04634123 20.70838587 -0.0625 19.0625 C-0.07410156 18.14597656 -0.08570312 17.22945312 -0.09765625 16.28515625 C0 14 0 14 1 13 C2.68608966 12.92794489 4.37500659 12.91613932 6.0625 12.9375 C6.98160156 12.94652344 7.90070312 12.95554687 8.84765625 12.96484375 C9.55792969 12.97644531 10.26820312 12.98804688 11 13 C11 12.34 11 11.68 11 11 C10.28972656 11.01160156 9.57945313 11.02320313 8.84765625 11.03515625 C7.92855469 11.04417969 7.00945313 11.05320312 6.0625 11.0625 C5.14597656 11.07410156 4.22945313 11.08570313 3.28515625 11.09765625 C1 11 1 11 0 10 C-0.07205511 8.31391034 -0.08386068 6.62499341 -0.0625 4.9375 C-0.05347656 4.01839844 -0.04445312 3.09929688 -0.03515625 2.15234375 C-0.02355469 1.44207031 -0.01195313 0.73179687 0 0 Z " fill="#FFFFFF" transform="translate(2,4)"/>
</svg>
