<?xml version="1.0" encoding="UTF-8"?>
<svg version="1.1" xmlns="http://www.w3.org/2000/svg" width="32" height="32">
<path d="M0 0 C1.32 0 2.64 0 4 0 C5.36952673 2.73905345 5.12621361 4.97087332 5 8 C4.67 8.66 4.34 9.32 4 10 C7.96 10 11.92 10 16 10 C16 17.16594564 14.33709542 19.82637347 11 26 C5.72 26 0.44 26 -5 26 C-5.10861833 23.29057607 -5.18758577 20.585561 -5.25 17.875 C-5.28351562 17.11445313 -5.31703125 16.35390625 -5.3515625 15.5703125 C-5.44501058 10.15032401 -4.41816663 7.39664944 -1 3 C-0.67 2.01 -0.34 1.02 0 0 Z " fill="#FFFFFF" transform="translate(14,2)"/>
<path d="M0 0 C1.65 0 3.3 0 5 0 C5 5.28 5 10.56 5 16 C3.35 16 1.7 16 0 16 C0 10.72 0 5.44 0 0 Z " fill="#FFFFFF" transform="translate(2,12)"/>
</svg>
