<?xml version="1.0" encoding="UTF-8"?>
<svg version="1.1" xmlns="http://www.w3.org/2000/svg" width="32" height="32">
<path d="M0 0 C4.83858548 2.32968931 7.67031069 5.16141452 10 10 C10.7971639 14.99447589 10.57907893 18.79729761 8.375 23.375 C5.13226355 26.95907713 2.53524104 29.59535241 -2.3984375 30.3828125 C-8.08222994 30.63883919 -11.64938655 29.93626932 -16 26 C-19.93626932 21.64938655 -20.63883919 18.08222994 -20.3828125 12.3984375 C-19.59535241 7.46475896 -16.95907713 4.86773645 -13.375 1.625 C-8.79729761 -0.57907893 -4.99447589 -0.7971639 0 0 Z M-9 10 C-9.66 10.66 -10.32 11.32 -11 12 C-10.8528623 15.45773598 -10.55210063 17.36902785 -8.25 20 C-5.98824125 21.2777025 -5.98824125 21.2777025 -3.375 20.375 C-0.73365529 19.07948232 -0.73365529 19.07948232 1 16 C0.84298574 13.38084878 0.84298574 13.38084878 0 11 C-1.93743229 9.75773199 -1.93743229 9.75773199 -3.9375 10.5 C-6 11 -6 11 -9 10 Z " fill="#FFFFFF" transform="translate(21,1)"/>
</svg>
