<?xml version="1.0" encoding="UTF-8"?>
<svg version="1.1" xmlns="http://www.w3.org/2000/svg" width="32" height="32">
<path d="M0 0 C3.27593689 2.5452745 5.32676302 4.93301158 6.15625 8.98828125 C6.29617873 13.70213031 5.8558839 17.62940702 2.90625 21.42578125 C-0.4146601 24.52026566 -2.37273805 25.91493025 -6.94921875 26.05078125 C-12.83256183 25.73542618 -15.83183236 24.29375384 -19.84375 19.98828125 C-22.28732377 16.16355708 -22.0671983 12.56923986 -21.44921875 8.20703125 C-20.21983073 3.70191903 -17.51674716 1.05714055 -13.59375 -1.44921875 C-8.91871806 -2.40547528 -4.26301752 -2.33924055 0 0 Z M-10.84375 6.98828125 C-12.04936184 7.97095984 -12.04936184 7.97095984 -11.94140625 9.8359375 C-11.92980469 10.56683594 -11.91820312 11.29773438 -11.90625 12.05078125 C-11.885625 13.35015625 -11.865 14.64953125 -11.84375 15.98828125 C-10.85375 16.48328125 -10.85375 16.48328125 -9.84375 16.98828125 C-9.84375 13.68828125 -9.84375 10.38828125 -9.84375 6.98828125 C-10.17375 6.98828125 -10.50375 6.98828125 -10.84375 6.98828125 Z M-5.84375 6.98828125 C-5.84375 10.28828125 -5.84375 13.58828125 -5.84375 16.98828125 C-5.18375 16.65828125 -4.52375 16.32828125 -3.84375 15.98828125 C-3.84375 13.34828125 -3.84375 10.70828125 -3.84375 7.98828125 C-4.50375 7.65828125 -5.16375 7.32828125 -5.84375 6.98828125 Z " fill="#FFFFFF" transform="translate(23.84375,4.01171875)"/>
</svg>
